<?xml version="1.0" encoding="UTF-8"?>
<svg id="Layer_1" xmlns="http://www.w3.org/2000/svg" version="1.1" viewBox="0 0 1289.01 636.12">
  <!-- Generator: Adobe Illustrator 29.8.3, SVG Export Plug-In . SVG Version: 2.1.1 Build 3)  -->
  <defs>
    <style>
      .st0 {
        fill: #fe3838;
      }

      .st1 {
        fill: #010101;
      }

      .st2 {
        fill: #020202;
      }

      .st3 {
        fill: #030303;
      }

      .st4 {
        fill: #040404;
      }
    </style>
  </defs>
  <path d="M103.15,111.06h1.44q.04,2.29.09,4.63c.11,5.79.24,11.59.37,17.38.05,2.48.1,4.97.15,7.45.45,24.17,2.65,47.61,8.02,71.23q.57,2.51,1.15,5.08c14.5,58.77,46.63,108.34,89.48,150.28,5.59-8.66,10.42-17.53,15.1-26.7,5.96-11.57,12.14-22.97,18.61-34.25,7.38-12.89,14.3-25.97,21.09-39.18,8.14-15.78,16.9-31.21,25.76-46.6-3.96-4.71-9.19-7.15-14.55-9.93q-1.5-.79-3.03-1.6c-3.19-1.68-6.38-3.35-9.57-5.01-3.18-1.67-6.36-3.34-9.54-5.01-1.98-1.04-3.95-2.07-5.93-3.11q-10.96-5.74-14.92-8.42v-2.88c14.71-5.29,29.42-10.41,44.46-14.71,6.7-1.92,13.32-4.01,19.92-6.24,8.06-2.73,16.15-5.31,24.29-7.78,5.37-1.64,10.73-3.31,16.08-4.98.98-.31,1.95-.61,2.96-.93,4.7-1.47,9.39-2.94,14.08-4.41,4.71-1.48,9.42-2.95,14.14-4.41,2.71-.84,5.41-1.69,8.11-2.54,5-1.57,10.01-3.14,15.01-4.7,1.61-.51,3.22-1.02,4.88-1.54,7.7-2.39,15.05-4.51,23.08-5.29,4.61,8.09,6.76,16.67,9.17,25.62.89,3.26,1.79,6.52,2.69,9.78.43,1.58.87,3.17,1.31,4.8,1.54,5.56,3.16,11.09,4.81,16.62,2.91,9.8,5.7,19.64,8.45,29.49.43,1.53.85,3.05,1.29,4.62,2.16,7.74,4.31,15.47,6.45,23.21,4.92,17.73,10.06,35.37,15.48,52.96.36,1.2.73,2.39,1.1,3.63.65,2.1,1.31,4.2,2,6.29,1.57,4.95,1.96,7.92.46,12.86-1.32-.7-2.64-1.41-4-2.13-4.96-2.64-9.92-5.28-14.88-7.92-2.13-1.14-4.27-2.27-6.4-3.41-11.64-6.21-23.28-12.39-35.14-18.18q-.48,1.71-.97,3.45c-2.48,6.74-5.87,12.76-9.37,19.03-1.57,2.84-3.14,5.69-4.7,8.53-.83,1.51-1.66,3.01-2.52,4.56-4.46,8.13-8.82,16.31-13.19,24.49-1.83,3.42-3.66,6.85-5.5,10.27-.45.85-.91,1.7-1.38,2.57-4.83,9.03-9.67,18.05-14.53,27.07q-1.23,2.29-2.49,4.63c-6.02,11.18-12.13,22.32-18.31,33.41-.6,1.09-1.21,2.18-1.83,3.3-.53.94-1.05,1.89-1.6,2.86q-1.49,2.76-2.73,6.85c23.35,5.95,46.37,9.18,70.49,10.07,1.07.04,2.15.08,3.26.13,70.73,2.33,144.29-22.31,198.23-68.38,3.16-2.53,6.48-4.53,9.98-6.55-3.39,29.13-14.92,56.37-28.77,82-.46.86-.92,1.72-1.39,2.61-13.54,25.21-31.09,48.15-51.83,67.88l-3.6,3.6-3.6,3.6c-.72.75-1.44,1.49-2.18,2.26-5.78,5.92-11.76,11.15-18.4,16.08-.99.73-1.97,1.47-2.99,2.22-37.17,27.18-79.36,45.95-124.59,54.69-1.18.23-2.37.46-3.59.69-73.6,13.34-152.43-4.77-213.63-47.18-56.39-39.24-97.37-95.61-117.96-161.12-.42-1.28-.83-2.56-1.26-3.88-12.64-40.38-11.15-87.54-1.62-128.46.25-1.07.49-2.13.75-3.23,11.23-48.21,7.88-40.51,15.93-63.55,1.51-4.53,3.35-8.88,8.38-23.3,30.5-53.3,26.07-47.14,43.99-65.28Z"/>
  <path class="st2" d="M752.25,338.58q9.34,5.73,11.51,10.07c4.25-1.99,7.89-4.35,11.69-7.1,12.9-8.58,26.2-10.32,41.54-8.72,13.12,3.44,23.87,10.46,31.65,21.58,6.1,11.15,6.53,21.55,6.32,34.04,0,1.83-.02,3.66-.02,5.55-.03,4.82-.08,9.64-.14,14.46-.06,4.94-.09,9.88-.11,14.81-.06,9.65-.17,19.3-.28,28.96h-41.72c-.07-5-.14-10.01-.21-15.17-.08-4.85-.16-9.7-.24-14.55-.06-3.37-.11-6.74-.15-10.11-.07-4.85-.15-9.69-.24-14.54-.02-1.5-.03-3.01-.05-4.56-.03-1.41-.06-2.82-.09-4.27-.02-1.24-.04-2.47-.06-3.75-.71-6.25-2.35-9.87-6.96-14.15-5.56-2.63-8.69-2.75-14.66-2.26-5,2.1-7.92,5.29-10.42,9.99-1.07,5.63-1.04,11.18-1.02,16.89q-.03,2.42-.07,4.9c-.06,5.14-.07,10.29-.09,15.43-.03,3.5-.07,6.99-.11,10.49-.1,8.55-.13,17.1-.16,25.66h-41.72q-.08-7.48-.16-15.12c-.07-4.84-.14-9.68-.21-14.53-.05-3.36-.09-6.72-.12-10.08-.05-4.84-.12-9.67-.2-14.5,0-1.5-.02-2.99-.03-4.54-.16-7.79-.48-13.71-5.02-20.36-6.4-4.27-12.64-3.97-20.14-2.88-4.91,3.63-6.71,5.75-8.63,11.51-.17,2.32-.25,4.64-.3,6.96-.03,1.41-.06,2.82-.09,4.28q-.04,2.28-.07,4.6c-.03,1.56-.06,3.12-.09,4.72-.09,4.98-.18,9.97-.26,14.95-.06,3.38-.12,6.75-.19,10.13-.16,8.28-.3,16.56-.44,24.85h-41.72v-116.52h30.21q2.88,5.75,2.88,11.51c.66-.56,1.33-1.11,2.01-1.69,17.39-13.88,38.19-18.13,58.41-6.95Z"/>
  <path class="st3" d="M864.46,478.11h44.59c2.64,7.21,5.28,14.43,7.91,21.65.89,2.45,1.79,4.91,2.69,7.36,1.3,3.53,2.58,7.07,3.87,10.61.4,1.09.8,2.18,1.22,3.3,2.1,5.82,3.66,11.33,4.45,17.5h2.88c.31-1.66.62-3.33.94-5.04,2.35-10.57,6.27-20.67,9.94-30.83.74-2.06,1.47-4.13,2.21-6.2q5.35-14.95,7.05-18.35h33.09c3.4,8.5,6.75,16.92,9.78,25.55.34.97.69,1.94,1.04,2.94,1.07,3.03,2.14,6.07,3.21,9.1.74,2.08,1.47,4.17,2.21,6.25,1.78,5.05,3.57,10.1,5.34,15.15,5.13-12.36,9.58-24.96,14.03-37.58.74-2.08,1.47-4.17,2.21-6.25,1.78-5.05,3.56-10.1,5.34-15.15h44.59c-2.58,8.61-5.11,16.87-8.22,25.24-.36.98-.73,1.96-1.1,2.98-1.18,3.19-2.37,6.37-3.55,9.55-.83,2.23-1.66,4.47-2.49,6.7-1.73,4.65-3.46,9.3-5.19,13.95-2.22,5.97-4.44,11.94-6.65,17.91-1.7,4.6-3.41,9.19-5.12,13.79-.82,2.2-1.64,4.41-2.45,6.61-1.14,3.06-2.28,6.12-3.42,9.18q-.97,2.61-1.96,5.28-1.56,3.9-3,5.34c-2.88.13-5.76.15-8.64.14-1.57,0-3.15,0-4.77-.01-2.01-.01-4.03-.03-6.1-.04q-9.57-.04-19.33-.09c-7.12-19.46-14.24-38.93-21.58-58.98q-5.7,13.61-10.99,27.34c-.62,1.68-1.24,3.37-1.88,5.1-.62,1.69-1.24,3.39-1.88,5.14-1.26,3.45-2.53,6.9-3.8,10.35-.55,1.5-1.1,3-1.66,4.55q-1.37,3.62-2.81,6.5h-38.84c-1.81-4.76-3.61-9.52-5.47-14.42-1.8-4.73-3.59-9.46-5.39-14.19-1.27-3.33-2.53-6.67-3.8-10q-8.76-23.11-17.64-46.17c-.67-1.73-1.34-3.45-2.03-5.23-1.17-3.01-2.35-6.03-3.53-9.03-.5-1.3-1.01-2.59-1.53-3.93-.42-1.07-.84-2.14-1.28-3.25q-1.05-3.11-2.49-10.3Z"/>
  <path class="st1" d="M1247.11,340.01c5.47,3.87,8.94,7.74,12.5,13.4.84,1.3,1.67,2.6,2.53,3.94,5.7,10.85,5.49,20.88,5.39,32.92,0,1.77,0,3.55-.01,5.38-.02,5.64-.05,11.29-.09,16.93-.02,3.84-.03,7.67-.04,11.51-.03,9.38-.09,18.76-.14,28.14h-41.72c-.04-4.97-.07-9.94-.11-15.07-.06-4.83-.12-9.66-.19-14.5-.04-3.35-.07-6.7-.09-10.05-.03-4.82-.1-9.65-.17-14.47,0-1.49,0-2.98,0-4.51-.18-9.01-1.26-14.62-6.63-21.96-6.06-3.03-13.57-2.38-20.14-1.44-4.86,3.21-6.8,7.47-8.63,12.95-.16,2.27-.25,4.55-.3,6.83-.03,1.38-.06,2.76-.09,4.19q-.04,2.23-.07,4.51c-.03,1.53-.06,3.05-.09,4.63-.09,4.88-.18,9.76-.26,14.64-.06,3.31-.12,6.61-.19,9.92-.16,8.11-.3,16.22-.44,24.33h-41.72v-116.52h30.21c1.42,3.32,2.85,6.65,4.32,10.07,1.15-.69,2.29-1.39,3.47-2.1,1.52-.91,3.05-1.82,4.62-2.75,1.5-.9,3-1.8,4.55-2.73,17.08-9.18,36.98-7.8,53.53,1.83Z"/>
  <path class="st4" d="M873.09,524.15c-3.21-14.72-11.27-27.09-23.02-36.41-30.29-20.32-72.37-17.68-97.82,9.08-2.93,3.91-5.78,7.71-8.63,11.51q-.73-15.26-1.44-30.21-5.86-.09-11.6-.18c-6.44-.14-12.09,0-18.4,1.46-6.31,2.22-11.58,4.76-15.14,10.59-.31.86-.6,1.69-.9,2.52h-2.88q0-4.32-4.32-14.39h-30.21v116.52h41.72c.14-6.92.29-13.84.44-20.75.06-2.82.13-5.64.19-8.47.08-4.16.17-8.33.26-12.49.03-1.34.06-2.65.09-3.95q.04-1.94.07-3.84c.03-1.22.06-2.4.09-3.58.17-7.73,2.68-12.77,7.49-18.85q15.09-5.69,31.65-5.75c-1.76,4.61-2.88,8.66-3.36,13.59-.19,17.98,3.32,34.56,15.89,48.03,15.03,14.08,30.84,18.9,50.99,19.27,1.24.01,2.44.02,3.64.04,3.4.04,6.78.03,10.18-.09,15.16-1.25,31.16-9.01,41.35-20.3,11.76-16.35,15.41-33.48,13.65-53.33ZM826.49,554.84c-6.06,6.27-12.57,8.45-21.19,8.77-8.99-.44-14.39-3.26-20.41-9.89-5.55-6.51-5.9-13.19-5.8-21.52,1.07-8.08,5.68-13.25,11.28-18.85,9.19-3.94,19.32-3.58,28.77-.54,6.07,4.56,10.83,9.38,12.23,17.08,1.02,9.42.85,17.12-4.88,24.94Z"/>
  <path class="st3" d="M998.24,381.73c-3.21-14.72-11.27-27.09-23.02-36.41-25.34-16.99-63.18-19.14-88.15.1-14,11.9-22.66,24.36-24.61,43.05-.54,17.67,3.67,34.53,15.96,47.68,15.03,14.08,30.84,18.9,50.99,19.27,1.24.01,2.44.02,3.64.04,3.4.04,6.78.02,10.18-.09,15.16-1.25,31.16-9.01,41.35-20.3,11.76-16.35,15.41-33.48,13.65-53.33ZM951.64,412.43c-6.06,6.27-12.57,8.45-21.19,8.77-8.99-.44-14.39-3.26-20.41-9.89-5.55-6.51-5.9-13.19-5.8-21.52,1.07-8.08,5.68-13.25,11.28-18.85,9.19-3.94,19.32-3.58,28.77-.54,6.07,4.56,10.83,9.38,12.23,17.08,1.02,9.42.85,17.12-4.88,24.94Z"/>
  <path class="st2" d="M1135.35,392.97c.01-3.65-.01-7.29-.16-10.94-1.35-14.68-11.37-27.09-22.2-36.29-24.48-17.45-61.29-18.36-86.45-2.12-12.64,9.27-22.42,21.01-25.43,36.68-1.52,19.89-.2,36.99,12.42,53.41,10.97,11.43,25.29,20.44,41.35,21.65,24.98.95,46.42-1.37,65.63-18.96,9.57-11.82,14.92-24.49,14.91-39.71-.02-1.26-.05-2.49-.07-3.71ZM1088.87,411.94c-6.45,6.28-12.41,8.76-21.31,9.26-9.93-.22-15.74-4.59-22.57-11.42-3.94-9.19-3.58-19.32-.54-28.77,9.01-12.01,23.13-16.36,37.61-11.02,6.5,4.22,10.32,10.14,12.56,17.5,1.57,9.27-.39,16.77-5.75,24.45Z"/>
  <path class="st0" d="M146.6,97.78l4.73-8.86c.64-1.2,2.46-.61,2.29.73l-1.3,10.05c-.12.96.87,1.68,1.75,1.26l9.01-4.37c1.22-.59,2.35.94,1.43,1.93l-6.93,7.43c-.66.7-.28,1.86.67,2.04l9.91,1.87c1.33.25,1.33,2.15,0,2.4l-9.91,1.87c-.95.18-1.32,1.33-.67,2.04l6.93,7.43c.92.99-.21,2.52-1.43,1.93l-9.01-4.37c-.87-.42-1.87.29-1.75,1.26l1.3,10.05c.17,1.35-1.65,1.93-2.29.73l-4.73-8.86c-.46-.86-1.7-.86-2.16,0l-4.73,8.86c-.64,1.2-2.46.61-2.29-.73l1.3-10.05c.12-.96-.87-1.68-1.75-1.26l-9.01,4.37c-1.22.59-2.35-.94-1.43-1.93l6.93-7.43c.66-.7.28-1.86-.67-2.04l-9.91-1.87c-1.33-.25-1.33-2.15,0-2.4l9.91-1.87c.95-.18,1.32-1.33.67-2.04l-6.93-7.43c-.92-.99.21-2.52,1.43-1.93l9.01,4.37c.87.42,1.87-.29,1.75-1.26l-1.3-10.05c-.17-1.35,1.65-1.93,2.29-.73l4.73,8.86c.46.86,1.7.86,2.16,0Z"/>
  <path class="st0" d="M451.45,21.23l4.73-8.86c.64-1.2,2.46-.61,2.29.73l-1.3,10.05c-.12.96.87,1.68,1.75,1.26l9.01-4.37c1.22-.59,2.35.94,1.43,1.93l-6.93,7.43c-.66.7-.28,1.86.67,2.04l9.91,1.87c1.33.25,1.33,2.15,0,2.4l-9.91,1.87c-.95.18-1.32,1.33-.67,2.04l6.93,7.43c.92.99-.21,2.52-1.43,1.93l-9.01-4.37c-.87-.42-1.87.29-1.75,1.26l1.3,10.05c.17,1.35-1.65,1.93-2.29.73l-4.73-8.86c-.46-.86-1.7-.86-2.16,0l-4.73,8.86c-.64,1.2-2.46.61-2.29-.73l1.3-10.05c.12-.96-.87-1.68-1.75-1.26l-9.01,4.37c-1.22.59-2.35-.94-1.43-1.93l6.93-7.43c.66-.7.28-1.86-.67-2.04l-9.91-1.87c-1.33-.25-1.33-2.15,0-2.4l9.91-1.87c.95-.18,1.32-1.33.67-2.04l-6.93-7.43c-.92-.99.21-2.52,1.43-1.93l9.01,4.37c.87.42,1.87-.29,1.75-1.26l-1.3-10.05c-.17-1.35,1.65-1.93,2.29-.73l4.73,8.86c.46.86,1.7.86,2.16,0Z"/>
  <path class="st0" d="M579.45,333.97l4.73-8.86c.64-1.2,2.46-.61,2.29.73l-1.3,10.05c-.12.96.87,1.68,1.75,1.26l9.01-4.37c1.22-.59,2.35.94,1.43,1.93l-6.93,7.43c-.66.7-.28,1.86.67,2.04l9.91,1.87c1.33.25,1.33,2.15,0,2.4l-9.91,1.87c-.95.18-1.32,1.33-.67,2.04l6.93,7.43c.92.99-.21,2.52-1.43,1.93l-9.01-4.37c-.87-.42-1.87.29-1.75,1.26l1.3,10.05c.17,1.35-1.65,1.93-2.29.73l-4.73-8.86c-.46-.86-1.7-.86-2.16,0l-4.73,8.86c-.64,1.2-2.46.61-2.29-.73l1.3-10.05c.12-.96-.87-1.68-1.75-1.26l-9.01,4.37c-1.22.59-2.35-.94-1.43-1.93l6.93-7.43c.66-.7.28-1.86-.67-2.04l-9.91-1.87c-1.33-.25-1.33-2.15,0-2.4l9.91-1.87c.95-.18,1.32-1.33.67-2.04l-6.93-7.43c-.92-.99.21-2.52,1.43-1.93l9.01,4.37c.87.42,1.87-.29,1.75-1.26l-1.3-10.05c-.17-1.35,1.65-1.93,2.29-.73l4.73,8.86c.46.86,1.7.86,2.16,0Z"/>
</svg>