<?xml version="1.0" encoding="UTF-8"?>
<svg version="1.1" xmlns="http://www.w3.org/2000/svg" width="1080" height="1080">
<path d="M0 0 C356.4 0 712.8 0 1080 0 C1080 356.4 1080 712.8 1080 1080 C723.6 1080 367.2 1080 0 1080 C0 723.6 0 367.2 0 0 Z " fill="#FEFEFE" transform="translate(0,0)"/>
<path d="M0 0 C0.33 0 0.66 0 1 0 C0.85929844 3.16691607 0.71148731 6.33346378 0.5625 9.5 C0.52318359 10.386875 0.48386719 11.27375 0.44335938 12.1875 C0.40146484 13.0640625 0.35957031 13.940625 0.31640625 14.84375 C0.26141968 16.03774414 0.26141968 16.03774414 0.20532227 17.25585938 C0.04570926 19.3890939 -0.21050768 21.51518702 -0.50488281 23.6340332 C-1.16209861 28.75385911 -1.19914257 33.85554218 -1.23828125 39.01171875 C-1.25283607 40.60982643 -1.25283607 40.60982643 -1.26768494 42.24021912 C-1.29273344 45.72268454 -1.30524903 49.20495317 -1.3125 52.6875 C-1.31511841 53.88284363 -1.31773682 55.07818726 -1.32043457 56.30975342 C-1.32596936 80.04490519 0.20750545 103.43867547 3 127 C3.08441345 127.715047 3.1688269 128.43009399 3.25579834 129.16680908 C9.4249767 180.80551425 23.57319675 231.19903093 44 279 C44.35594238 279.83740723 44.71188477 280.67481445 45.07861328 281.53759766 C69.13984059 337.68046138 102.64127844 388.28731813 143 434 C143.45117188 434.51191895 143.90234375 435.02383789 144.3671875 435.55126953 C151.25100093 443.30859716 158.5483652 450.67198163 165.85385132 458.02908325 C166.94634449 459.12971833 168.03736347 460.23181878 169.12686157 461.3354187 C170.67306361 462.89952596 172.22608044 464.45653336 173.78125 466.01171875 C174.68939453 466.92397217 175.59753906 467.83622559 176.53320312 468.77612305 C178.66956695 470.70210662 180.36467355 471.91642572 183 473 C183.45101074 472.12770752 183.45101074 472.12770752 183.91113281 471.23779297 C189.91970099 459.63167355 196.00564243 448.0766384 202.29052734 436.61767578 C206.36355212 429.18561739 210.37860153 421.72350031 214.375 414.25 C215.65228852 411.86194962 216.92963565 409.4739306 218.20703125 407.0859375 C218.52336517 406.49452469 218.8396991 405.90311188 219.1656189 405.29377747 C224.17571143 395.92996405 229.21896585 386.5839736 234.25732422 377.23535156 C236.02863801 373.94683232 237.79781145 370.65716975 239.56640625 367.3671875 C244.97324692 357.31184129 250.39254507 347.26434537 255.875 337.25 C261.00014748 327.88591764 266.02595895 318.47018445 271.03945923 309.04608154 C275.80637244 300.08742455 280.62148267 291.15717055 285.49658203 282.25683594 C289.4976041 274.94337106 293.44295089 267.60073728 297.375 260.25 C298.0114735 259.06038352 298.64794811 257.87076764 299.28442383 256.68115234 C300.24029766 254.89447485 301.1961598 253.10779111 302.15196228 251.32107544 C311.33447131 234.15860743 320.57978206 217.03329204 330 200 C327.08304126 197.70252348 324.11009549 195.88365705 320.8359375 194.13671875 C319.80968262 193.58685303 318.78342773 193.0369873 317.72607422 192.47045898 C316.62021973 191.88208252 315.51436523 191.29370605 314.375 190.6875 C312.61364208 189.74482045 310.8522867 188.80213612 309.09109497 187.85914612 C307.26569507 186.88230093 305.43955077 185.90685889 303.61328125 184.93164062 C298.02665956 181.9469764 292.45113753 178.94169158 286.875 175.9375 C285.79911621 175.35830811 284.72323242 174.77911621 283.61474609 174.18237305 C275.43010292 169.77502084 267.2530624 165.35374892 259.0847168 160.91625977 C254.28399843 158.31040608 249.47745033 155.71674227 244.65426636 153.15264893 C242.8409552 152.18858559 241.02875165 151.22246923 239.21679688 150.25585938 C236.90928182 149.02612114 234.59947222 147.80067632 232.28710938 146.58007812 C231.24748047 146.02513672 230.20785156 145.47019531 229.13671875 144.8984375 C228.21592529 144.41036621 227.29513184 143.92229492 226.34643555 143.41943359 C224.20125045 142.12174281 222.66214783 140.85937514 221 139 C228.12312912 135.53966854 235.42236297 133.25012803 243 131 C245.60702898 130.19659293 248.20981476 129.37985392 250.8125 128.5625 C252.17314447 128.13661453 253.5338218 127.71083404 254.89453125 127.28515625 C255.57338379 127.07262207 256.25223633 126.86008789 256.95166016 126.64111328 C260.30073358 125.59288124 263.65039185 124.54652179 267 123.5 C268.33333623 123.0833426 269.66666956 122.66667593 271 122.25 C279 119.75 279 119.75 280.88873291 119.15977764 C282.85258875 118.54606648 284.81643162 117.93231379 286.78027344 117.31855774 C289.42925619 116.49073389 292.07835703 115.66329153 294.72753906 114.83610535 C303.38026243 112.13383714 312.03008966 109.4225244 320.67730713 106.70269203 C322.83804491 106.02308905 324.99884886 105.34369677 327.15966797 104.66435242 C333.29240738 102.73623687 339.42505546 100.807831 345.55761719 98.87915039 C361.8474904 93.75614579 378.13888826 88.63811449 394.4375 83.54296875 C395.08664368 83.33994959 395.73578735 83.13693043 396.40460205 82.92775917 C404.0165036 80.54752444 411.63316063 78.18360282 419.25737 75.84307861 C422.77923032 74.76046626 426.29632732 73.66344681 429.8125 72.5625 C431.17317456 72.13671068 432.53385172 71.71092968 433.89453125 71.28515625 C434.57338379 71.07262207 435.25223633 70.86008789 435.95166016 70.64111328 C438.59899911 69.81251828 441.24670696 68.98510658 443.89446926 68.15786552 C445.85660219 67.54480413 447.81869131 66.93160254 449.78077698 66.31838989 C452.42585768 65.49177308 455.07108463 64.66562989 457.71641541 63.83981323 C466.46524758 61.10795119 475.21026224 58.36421705 483.95239449 55.61099625 C487.69006721 54.43403592 491.42807147 53.25812917 495.16601562 52.08203125 C499.85638536 50.60621589 504.54666293 49.13010991 509.23657227 47.65283203 C539.28129826 38.18976901 539.28129826 38.18976901 553.58984375 33.8046875 C554.53396622 33.51353058 555.47808868 33.22237366 556.45082092 32.9223938 C557.29841476 32.66424896 558.14600861 32.40610413 559.01928711 32.14013672 C560.11061195 31.80645584 560.11061195 31.80645584 561.22398376 31.46603394 C563 31 563 31 565 31 C567.50706225 38.12300627 569.69405103 45.30575171 571.74609375 52.5703125 C572.2789001 54.44599491 572.81211648 56.3215609 573.34570312 58.19702148 C573.61882324 59.15704071 573.89194336 60.11705994 574.17333984 61.10617065 C575.49566346 65.73513319 576.83923582 70.35786633 578.18359375 74.98046875 C588.15894528 109.32194242 588.15894528 109.32194242 591.8125 123.1875 C594.24486932 132.41128106 596.96249271 141.51756745 599.80761719 150.62182617 C602.68733026 159.87893253 605.4022008 169.17797848 608.0625 178.5 C608.38303848 179.62278351 608.38303848 179.62278351 608.71005249 180.76824951 C611.43863402 190.34316772 614.07570934 199.93807898 616.625 209.5625 C618.80150824 217.76946099 621.15049024 225.89735688 623.6875 234 C627.32345244 245.61709025 630.72148699 257.29516508 634.0625 269 C634.32336395 269.91362305 634.58422791 270.82724609 634.85299683 271.76855469 C638.200513 283.50989906 641.44225585 295.27200216 644.56323242 307.07568359 C646.49669865 314.31517301 648.64064312 321.47309944 650.875 328.625 C653.83725319 338.12329785 656.70464319 347.64451563 659.44122314 357.21014404 C659.8528508 358.64447172 660.26797036 360.07780224 660.68670654 361.5100708 C661.2709645 363.51187459 661.84221935 365.51695137 662.41015625 367.5234375 C662.90721069 369.254729 662.90721069 369.254729 663.41430664 371.02099609 C663.97348295 373.86512668 664.0042418 375.3272033 663 378 C650.80193656 371.69310436 638.65387258 365.31021545 626.61328125 358.70727539 C619.22333109 354.65776485 611.80524834 350.66252259 604.375 346.6875 C602.63114014 345.75429932 602.63114014 345.75429932 600.85205078 344.80224609 C596.59552824 342.52508779 592.33813751 340.24955446 588.08062744 337.97424316 C584.2295801 335.91611433 580.37894986 333.85720918 576.52886963 331.79727173 C574.73565421 330.83825306 572.94181852 329.88040225 571.14794922 328.92260742 C562.10022602 324.08240116 562.10022602 324.08240116 557.83203125 321.57421875 C555.248677 319.83805079 555.248677 319.83805079 553 320 C552.6690332 320.64211426 552.33806641 321.28422852 551.99707031 321.94580078 C545.67536361 334.19546714 539.29166655 346.39963531 532.65869141 358.48388672 C528.60070545 365.88110583 524.60335624 373.30969471 520.625 380.75 C519.34773135 383.13806101 518.07037429 385.52607472 516.79296875 387.9140625 C516.47663986 388.50546524 516.16031097 389.09686798 515.83439636 389.70619202 C510.82121527 399.07578844 505.77518417 408.42774006 500.73388672 417.78222656 C497.82129735 423.18745437 494.9107577 428.59378568 492 434 C490.83334304 436.16667189 489.66667637 438.33333856 488.5 440.5 C487.9225 441.5725 487.345 442.645 486.75 443.75 C439.50000001 531.49999997 439.50000001 531.49999997 437.74853516 534.75268555 C436.58671245 536.91037947 435.42492833 539.06809417 434.26318359 541.22583008 C430.65745299 547.92269292 427.05025353 554.61876198 423.44189453 561.31420898 C421.67820768 564.58871332 419.91710046 567.86459478 418.15625 571.140625 C416.23126697 574.72053949 414.29600144 578.29426352 412.34375 581.859375 C411.96138184 582.56231689 411.57901367 583.26525879 411.18505859 583.98950195 C410.21334643 585.77515173 409.23586557 587.55765918 408.2578125 589.33984375 C406.78627074 591.96159466 406.78627074 591.96159466 407 595 C415.38703907 599.65819133 423.38408096 602.50870861 432.75 604.5 C433.39785461 604.64174652 434.04570923 604.78349304 434.7131958 604.92953491 C461.07974389 610.68121891 488.05593076 614.53650462 515 616 C516.35858843 616.08436083 517.71714743 616.16919628 519.07568359 616.25439453 C572.74712351 619.49824285 625.14438361 615.31836089 677.56298828 603.54394531 C679.77686935 603.04980316 681.9941905 602.57971284 684.21484375 602.1171875 C698.4087141 599.07564385 712.20712991 594.47660609 726 590 C727.21896973 589.60506348 728.43793945 589.21012695 729.69384766 588.80322266 C793.82569817 567.827606 853.29948371 534.46087782 905.23242188 491.46337891 C907.89693608 489.25742612 910.57353843 487.06644142 913.25 484.875 C914.08015625 484.19179688 914.9103125 483.50859375 915.765625 482.8046875 C917.81064458 481.15294092 919.89294828 479.57116376 922 478 C920.69151825 487.88889851 918.61526852 497.48136318 916.125 507.125 C915.93258728 507.87378418 915.74017456 508.62256836 915.54193115 509.39404297 C895.66312024 586.15568672 857.81253709 658.2607741 807 719 C806.25435791 719.89428711 806.25435791 719.89428711 805.49365234 720.80664062 C793.72556661 734.87405909 781.06890258 748.01981954 768.125 761 C767.58493317 761.54274567 767.04486633 762.08549133 766.48843384 762.64468384 C760.5066517 768.64896713 754.47479366 774.52229234 748 780 C746.88174419 780.97273157 745.76452648 781.94665803 744.6484375 782.921875 C736.6248937 789.87262287 728.44401381 796.56656741 720 803 C719.3296875 803.51224121 718.659375 804.02448242 717.96875 804.55224609 C663.01396036 846.33657489 599.06391675 879.52394649 531.9375 896.5 C530.18264282 896.94653931 530.18264282 896.94653931 528.39233398 897.40209961 C524.93034957 898.27684259 521.46567378 899.14000708 518 900 C517.07864258 900.23219238 516.15728516 900.46438477 515.20800781 900.70361328 C502.78532906 903.8104607 490.2481029 906.07806901 477.625 908.1875 C476.86881378 908.31424103 476.11262756 908.44098206 475.33352661 908.57156372 C453.90789896 912.1402206 432.75181894 914.15728048 411.0234375 914.16796875 C409.43991061 914.17119854 407.856384 914.17456374 406.27285767 914.17805481 C402.97698274 914.18398555 399.68113378 914.18590107 396.38525391 914.18530273 C393.0557714 914.18522161 389.7264269 914.19215183 386.39697266 914.20581055 C368.17155977 914.27932915 350.11397662 914.29818732 332 912 C331.26428772 911.91076263 330.52857544 911.82152527 329.77056885 911.72958374 C324.96062749 911.14177996 320.16670805 910.47053708 315.375 909.75 C314.66142334 909.64395447 313.94784668 909.53790894 313.21264648 909.4286499 C289.74861673 905.91654689 266.80158459 900.52571779 244 894 C242.96762207 893.70931641 241.93524414 893.41863281 240.87158203 893.11914062 C189.29749555 878.48292376 139.68628412 854.27545371 95.375 824.25 C94.50184647 823.65850159 94.50184647 823.65850159 93.61105347 823.05505371 C85.56952539 817.59030033 77.72709585 811.90254305 70 806 C68.99767334 805.23550537 68.99767334 805.23550537 67.97509766 804.45556641 C59.57001115 798.0005938 51.46135275 791.23724197 43.47021484 784.27929688 C42.25086059 783.21828454 41.02646399 782.16307029 39.80078125 781.109375 C37.8500999 779.42450977 35.92130716 777.71830112 34 776 C32.69675781 774.83597656 32.69675781 774.83597656 31.3671875 773.6484375 C24.0776553 767.06062923 17.0818507 760.1868997 10.125 753.25 C9.23337158 752.36296387 8.34174316 751.47592773 7.4230957 750.56201172 C2.40796187 745.53511742 -2.3991655 740.40746491 -7 735 C-7.94982385 733.90564468 -8.90031625 732.81186916 -9.8515625 731.71875 C-26.52154921 712.41712964 -42.16819051 692.44863252 -56 671 C-56.68328369 669.95005859 -56.68328369 669.95005859 -57.38037109 668.87890625 C-87.47721736 622.54788014 -110.19520621 572.21411701 -125 519 C-125.49575352 517.29118935 -125.99300685 515.58281266 -126.4921875 513.875 C-151.40931446 426.94368166 -150.5615139 333.59202658 -78.98321533 109.16491699 C-58.88309986 73.44011634 -35.13518226 40.56970854 -8.35986328 9.57568359 C-7.1415326 8.16399486 -5.92787752 6.7482741 -4.71484375 5.33203125 C-4.08707031 4.60371094 -3.45929688 3.87539062 -2.8125 3.125 C-2.28269531 2.50882813 -1.75289062 1.89265625 -1.20703125 1.2578125 C-0.80871094 0.84273437 -0.41039062 0.42765625 0 0 Z " fill="#000000" transform="translate(148,165)"/>
<path d="M0 0 C3.44802976 3.17581688 5.41996314 5.60690687 7 10 C7.77085937 9.6390625 8.54171875 9.278125 9.3359375 8.90625 C10.33882812 8.4421875 11.34171875 7.978125 12.375 7.5 C13.87160156 6.80390625 13.87160156 6.80390625 15.3984375 6.09375 C18 5 18 5 20 5 C20.495 11.435 20.495 11.435 21 18 C24.96 18.33 28.92 18.66 33 19 C31.66666667 23 30.33333333 27 29 31 C31.97 32.98 34.94 34.96 38 37 C36.88333826 40.34998521 36.25305075 40.79340222 33.4375 42.6875 C32.79683594 43.12449219 32.15617188 43.56148437 31.49609375 44.01171875 C31.00238281 44.33785156 30.50867188 44.66398437 30 45 C30.74250597 49.08378283 31.82923301 53.01939223 33 57 C30.11788698 57.96070434 28.30149956 58.10581883 25.3125 58.0625 C23.1778125 58.0315625 23.1778125 58.0315625 21 58 C20.67 62.29 20.34 66.58 20 71 C15.47573227 69.49191076 11.33465333 67.90724747 7 66 C6.6596875 67.0828125 6.6596875 67.0828125 6.3125 68.1875 C4.75168987 71.53209313 2.6968713 73.51603959 0 76 C-1.00578589 74.71283353 -2.00446798 73.42011342 -3 72.125 C-3.556875 71.40570313 -4.11375 70.68640625 -4.6875 69.9453125 C-6 68 -6 68 -6 66 C-6.77085937 66.3609375 -7.54171875 66.721875 -8.3359375 67.09375 C-9.84027344 67.78984375 -9.84027344 67.78984375 -11.375 68.5 C-12.87160156 69.19609375 -12.87160156 69.19609375 -14.3984375 69.90625 C-17 71 -17 71 -19 71 C-19 66.71 -19 62.42 -19 58 C-20.216875 58.020625 -21.43375 58.04125 -22.6875 58.0625 C-25.91977322 58.06824116 -28.84934741 57.78766315 -32 57 C-30.66666667 53 -29.33333333 49 -28 45 C-28.6496875 44.59007812 -29.299375 44.18015625 -29.96875 43.7578125 C-30.8040625 43.21898437 -31.639375 42.68015625 -32.5 42.125 C-33.3353125 41.59132812 -34.170625 41.05765625 -35.03125 40.5078125 C-35.6809375 40.01023438 -36.330625 39.51265625 -37 39 C-37 38.34 -37 37.68 -37 37 C-35.03125 35.4921875 -35.03125 35.4921875 -32.5 33.875 C-31.6646875 33.33617187 -30.829375 32.79734375 -29.96875 32.2421875 C-29.3190625 31.83226563 -28.669375 31.42234375 -28 31 C-28.28875 30.13375 -28.5775 29.2675 -28.875 28.375 C-29.91666667 25.25 -30.95833333 22.125 -32 19 C-27.59085217 17.89771304 -23.51617599 17.92345464 -19 18 C-19 13.71 -19 9.42 -19 5 C-13 7 -13 7 -10.8125 8.125 C-8.88516673 9.21737453 -8.88516673 9.21737453 -6 9 C-4.30452319 7.00473828 -4.30452319 7.00473828 -2.8125 4.5 C-2.28269531 3.6646875 -1.75289062 2.829375 -1.20703125 1.96875 C-0.80871094 1.3190625 -0.41039062 0.669375 0 0 Z " fill="#020202" transform="translate(806,0)"/>
<path d="M0 0 C3.11257569 3.11257569 4.9340406 5.28127309 7 9 C7.86625 8.71125 8.7325 8.4225 9.625 8.125 C14.3125 6.5625 14.3125 6.5625 19 5 C19.8723412 7.99480917 20.10829766 10.63575911 20.0625 13.75 C20.05347656 14.54921875 20.04445313 15.3484375 20.03515625 16.171875 C20.02355469 16.77515625 20.01195312 17.3784375 20 18 C20.60328125 17.97679687 21.2065625 17.95359375 21.828125 17.9296875 C23.02695312 17.90261719 23.02695312 17.90261719 24.25 17.875 C25.43335938 17.84019531 25.43335938 17.84019531 26.640625 17.8046875 C29.20731941 18.0171622 30.7916067 18.71345895 33 20 C32.71125 20.62648437 32.4225 21.25296875 32.125 21.8984375 C31.568125 23.12433594 31.568125 23.12433594 31 24.375 C30.62875 25.18710938 30.2575 25.99921875 29.875 26.8359375 C28.87504987 28.91998433 28.87504987 28.91998433 29 31 C31.01791336 32.58969247 31.01791336 32.58969247 33.5 34.125 C34.3353125 34.66382813 35.170625 35.20265625 36.03125 35.7578125 C36.6809375 36.16773438 37.330625 36.57765625 38 37 C35.14723863 39.93200474 32.34920216 42.64315404 29 45 C29.28875 45.86625 29.5775 46.7325 29.875 47.625 C30.91666667 50.75 31.95833333 53.875 33 57 C28.71 57.33 24.42 57.66 20 58 C20.020625 59.2375 20.04125 60.475 20.0625 61.75 C20.06766681 64.6640825 19.93015558 67.20953327 19 70 C16.38848668 69.56474778 14.27441704 69.14968202 11.9375 67.875 C10.05512299 66.83101841 10.05512299 66.83101841 8.05078125 67.19140625 C5.33906023 68.26059911 4.68054615 69.55904423 3.25 72.0625 C2.82203125 72.79597656 2.3940625 73.52945313 1.953125 74.28515625 C1.63859375 74.85105469 1.3240625 75.41695313 1 76 C-2.44802976 72.82418312 -4.41996314 70.39309313 -6 66 C-6.68707031 66.28875 -7.37414062 66.5775 -8.08203125 66.875 C-8.98308594 67.24625 -9.88414062 67.6175 -10.8125 68 C-11.70582031 68.37125 -12.59914062 68.7425 -13.51953125 69.125 C-16 70 -16 70 -19 70 C-19.495 64.06 -19.495 64.06 -20 58 C-23.80859375 58.04882812 -23.80859375 58.04882812 -27.6171875 58.09765625 C-30 58 -30 58 -32 57 C-31.27991594 52.39146203 -29.68704061 48.32762591 -28 44 C-28.7425 43.731875 -29.485 43.46375 -30.25 43.1875 C-32.86636554 42.05770579 -34.80187111 40.79106798 -37 39 C-35.49776416 34.79373966 -32.71449966 33.26099979 -29 31 C-29.74250597 26.91621717 -30.82923301 22.98060777 -32 19 C-27.9472484 18.01751476 -24.16138263 17.91840426 -20 18 C-20.020625 16.783125 -20.04125 15.56625 -20.0625 14.3125 C-20.06824116 11.08022678 -19.78766315 8.15065259 -19 5 C-13 7 -13 7 -7 9 C-4.69 6.03 -2.38 3.06 0 0 Z " fill="#020202" transform="translate(263,127)"/>
<path d="M0 0 C3.44802976 3.17581688 5.41996314 5.60690687 7 10 C7.77085937 9.6390625 8.54171875 9.278125 9.3359375 8.90625 C10.33882812 8.4421875 11.34171875 7.978125 12.375 7.5 C13.87160156 6.80390625 13.87160156 6.80390625 15.3984375 6.09375 C18 5 18 5 20 5 C20.495 10.94 20.495 10.94 21 17 C24.96 17.33 28.92 17.66 33 18 C30.05357143 27.10714286 30.05357143 27.10714286 28 31 C29.0828125 31.3403125 29.0828125 31.3403125 30.1875 31.6875 C33.53209313 33.24831013 35.51603959 35.3031287 38 38 C35.03 40.31 32.06 42.62 29 45 C29.99 47.413125 29.99 47.413125 31 49.875 C33 54.75 33 54.75 33 57 C27.06 57.495 27.06 57.495 21 58 C20.67 61.96 20.34 65.92 20 70 C15 69 15 69 12.9375 67.9375 C10.75862665 66.70962605 10.75862665 66.70962605 7 67 C5.21005931 68.74074534 5.21005931 68.74074534 3.75 71 C3.22921875 71.7425 2.7084375 72.485 2.171875 73.25 C1.78515625 73.8275 1.3984375 74.405 1 75 C-1.64752004 72.42215154 -3.94432065 70.08351902 -6 67 C-9.76667915 67.51363807 -12.64120164 68.26269051 -16 70 C-16.99 70 -17.98 70 -19 70 C-19.495 64.06 -19.495 64.06 -20 58 C-23.96 57.67 -27.92 57.34 -32 57 C-30.66666667 53 -29.33333333 49 -28 45 C-30.97 43.02 -33.94 41.04 -37 39 C-35.89904638 35.69713914 -35.3103981 35.21489099 -32.5625 33.3125 C-31.94503906 32.87550781 -31.32757812 32.43851563 -30.69140625 31.98828125 C-29 31 -29 31 -27 31 C-27.3609375 30.31292969 -27.721875 29.62585938 -28.09375 28.91796875 C-28.5578125 28.01691406 -29.021875 27.11585938 -29.5 26.1875 C-29.9640625 25.29417969 -30.428125 24.40085937 -30.90625 23.48046875 C-32 21 -32 21 -32 18 C-28.04 17.67 -24.08 17.34 -20 17 C-19.67 13.04 -19.34 9.08 -19 5 C-15 6.33333333 -11 7.66666667 -7 9 C-4.69 6.03 -2.38 3.06 0 0 Z " fill="#020202" transform="translate(973,562)"/>
</svg>
